<?xml version="1.0" standalone="no"?>
<!DOCTYPE svg PUBLIC "-//W3C//DTD SVG 20010904//EN"
 "http://www.w3.org/TR/2001/REC-SVG-20010904/DTD/svg10.dtd">
<svg version="1.0" xmlns="http://www.w3.org/2000/svg"
 width="1104.000000pt" height="1196.000000pt" viewBox="0 0 1104.000000 1196.000000"
 preserveAspectRatio="xMidYMid meet">

<g transform="translate(0.000000,1196.000000) scale(0.100000,-0.100000)"
fill="#000000" stroke="none">
<path d="M6355 11830 c-11 -5 -33 -9 -49 -9 -16 -1 -43 -5 -60 -10 -17 -5 -65
-20 -106 -32 -41 -13 -79 -26 -85 -29 -5 -4 -37 -17 -70 -30 -33 -13 -64 -27
-70 -31 -5 -4 -37 -22 -70 -40 -59 -32 -159 -97 -198 -128 -89 -72 -181 -158
-274 -255 l-109 -116 -119 15 c-137 17 -388 20 -502 5 -125 -16 -289 -50 -312
-65 -5 -3 -38 23 -73 57 -170 168 -348 285 -498 327 -25 8 -58 17 -74 22 -49
15 -114 10 -161 -12 -77 -36 -114 -87 -217 -301 -4 -10 -8 -27 -8 -37 0 -11
-4 -22 -9 -25 -5 -3 -11 -23 -15 -43 -3 -21 -11 -74 -18 -118 -16 -103 -17
-412 0 -535 30 -229 49 -324 92 -470 29 -96 29 -137 1 -235 -27 -94 -40 -148
-48 -193 -3 -18 -9 -35 -14 -38 -5 -3 -9 -18 -9 -33 0 -15 -4 -31 -8 -36 -5
-6 -15 -30 -22 -55 -8 -25 -30 -76 -50 -115 -34 -67 -64 -152 -92 -260 -17
-66 -16 -317 1 -376 53 -183 81 -245 174 -384 155 -230 370 -478 550 -632 26
-23 47 -43 47 -46 0 -3 -37 -43 -83 -89 -90 -89 -189 -202 -196 -221 -2 -7
-11 -19 -20 -27 -66 -62 -178 -272 -219 -410 -45 -150 -52 -255 -25 -376 12
-50 60 -152 86 -181 22 -25 26 -70 10 -106 -31 -66 -41 -167 -22 -214 33 -81
46 -98 103 -129 39 -21 144 -21 185 1 35 17 36 16 45 -45 16 -110 48 -256 83
-389 14 -53 28 -111 30 -129 3 -18 9 -35 14 -38 5 -3 9 -16 9 -30 0 -13 4 -32
9 -42 5 -9 20 -53 34 -97 30 -95 99 -273 128 -327 16 -32 10 -53 -22 -72 -43
-25 -90 -77 -113 -123 -10 -21 -22 -46 -27 -55 -13 -25 -11 -105 3 -147 40
-124 72 -161 139 -161 15 0 30 -4 33 -9 15 -23 275 -31 401 -12 44 6 97 14
118 17 20 4 40 10 43 15 3 5 14 9 25 9 10 0 27 4 37 9 9 5 56 27 103 50 52 25
90 49 97 63 6 13 13 55 16 93 10 141 19 216 27 221 5 3 9 15 9 27 0 12 11 51
24 87 49 134 92 210 118 210 39 0 209 -195 287 -328 40 -69 46 -94 28 -134
-28 -66 -37 -106 -37 -166 0 -61 1 -62 38 -85 20 -12 60 -33 87 -46 28 -13 58
-27 67 -32 10 -5 28 -9 41 -9 13 0 27 -4 32 -8 36 -31 325 -46 415 -22 25 6
63 16 85 22 22 6 49 14 60 18 32 12 189 91 203 103 25 20 6 137 -36 229 -21
44 -22 63 -22 277 l0 230 33 25 c19 15 39 26 45 26 6 0 12 3 14 8 2 4 32 27
68 51 263 180 469 410 603 675 138 271 187 463 203 796 6 130 -6 169 -61 199
-16 9 -32 19 -35 22 -10 10 -160 79 -252 115 -51 19 -101 40 -110 45 -10 5
-27 9 -38 9 -23 0 -31 17 -50 99 -13 54 -67 173 -82 179 -4 2 -8 9 -8 15 0 36
-196 243 -322 340 -37 29 -67 55 -68 59 0 3 39 37 87 75 124 96 284 260 380
387 45 60 87 121 95 135 7 14 15 28 19 31 11 10 66 136 78 180 7 25 17 55 22
68 12 30 12 331 0 385 -5 23 -15 74 -21 112 -7 39 -23 115 -37 170 -13 55 -27
111 -30 125 -2 14 -8 34 -12 45 -23 57 -83 242 -84 255 0 8 10 51 23 95 12 44
26 99 31 123 5 23 14 63 19 90 64 288 100 587 100 826 0 153 -16 319 -40 431
-7 28 -14 65 -17 83 -3 18 -9 35 -14 38 -5 3 -9 16 -9 29 0 13 -4 27 -10 30
-5 3 -10 17 -10 31 0 13 -4 24 -10 24 -5 0 -10 6 -10 13 0 43 -98 195 -182
283 -63 65 -114 95 -190 113 -54 13 -66 13 -93 1z m141 -104 c45 -23 137 -123
183 -199 23 -37 41 -70 41 -72 0 -3 9 -24 19 -48 24 -52 54 -144 70 -217 7
-30 17 -71 21 -90 28 -113 32 -447 7 -640 -10 -74 -22 -166 -26 -205 -9 -67
-40 -234 -61 -322 -6 -24 -15 -64 -21 -90 -6 -27 -13 -55 -16 -63 -2 -9 -25
26 -52 80 -26 52 -64 125 -84 161 l-38 67 16 48 c27 87 33 108 48 179 31 141
37 206 37 374 0 162 -3 192 -37 321 -21 80 -88 215 -119 239 -38 30 -63 34
-130 22 -156 -29 -326 -159 -463 -355 -22 -33 -41 -69 -41 -81 0 -12 21 -41
51 -70 48 -47 177 -196 226 -261 332 -441 486 -711 599 -1054 19 -58 39 -114
44 -125 24 -51 61 -215 91 -405 17 -108 22 -310 9 -355 -6 -22 -17 -58 -23
-80 -48 -178 -291 -491 -527 -681 -130 -105 -234 -170 -405 -253 -133 -64
-299 -131 -327 -131 -9 0 -20 -4 -23 -10 -3 -5 -19 -10 -35 -10 -16 0 -31 -4
-34 -9 -3 -5 -20 -11 -38 -14 -18 -3 -51 -10 -73 -15 -80 -19 -243 -51 -321
-63 -120 -17 -447 -23 -503 -9 -79 20 -127 38 -189 69 -24 11 -50 21 -58 21
-8 0 -14 3 -14 8 0 4 -15 13 -32 21 -32 14 -238 147 -248 161 -3 3 -15 13 -27
21 -70 48 -277 244 -374 354 -98 112 -281 357 -311 415 -7 14 -20 36 -28 50
-23 35 -65 144 -84 218 -11 43 -16 107 -16 194 0 117 3 140 31 228 16 54 41
120 53 147 57 117 90 209 127 348 6 22 15 54 20 71 5 17 9 40 9 52 0 11 4 23
9 26 5 3 11 23 14 43 3 21 10 56 16 78 12 48 67 273 82 335 6 25 13 60 16 78
3 18 9 35 14 38 5 3 9 14 9 25 0 10 4 27 10 37 5 9 24 49 41 87 35 76 93 176
124 214 144 177 269 269 490 361 36 15 139 47 185 58 168 39 249 47 450 46
154 0 228 -6 386 -30 41 -6 41 -5 92 58 109 137 425 418 470 418 6 0 12 3 12
8 0 4 10 12 23 18 60 30 194 96 209 105 10 5 27 9 37 9 11 0 22 4 25 9 3 5 18
11 33 14 16 2 53 12 83 20 106 29 190 30 246 3z m-2761 -317 c5 -5 16 -9 26
-9 31 0 269 -135 299 -169 3 -3 38 -35 78 -70 69 -60 92 -101 57 -101 -8 0
-23 -4 -33 -9 -121 -60 -155 -80 -204 -112 -31 -22 -63 -39 -70 -39 -7 0 -44
16 -82 35 -58 30 -79 35 -136 35 -59 0 -73 -4 -99 -25 -36 -31 -76 -110 -92
-180 -16 -75 -25 -263 -18 -403 6 -122 3 -150 -24 -247 -12 -43 -15 -47 -24
-30 -6 11 -13 38 -17 60 -3 22 -10 63 -16 90 -58 293 -66 614 -20 819 36 161
130 339 194 367 25 11 167 2 181 -12z m2693 -241 c52 -64 105 -213 118 -333
14 -127 5 -306 -24 -460 -11 -56 -41 -167 -47 -173 -7 -7 -22 7 -51 50 -16 24
-37 52 -46 62 -10 11 -18 23 -18 28 0 4 -21 35 -47 69 -27 33 -55 71 -63 82
-8 12 -39 53 -70 91 -30 38 -66 83 -79 100 -13 17 -51 59 -84 92 l-59 62 33
48 c42 63 172 194 224 226 51 32 142 67 176 67 15 1 31 -5 37 -11z m-2712
-301 c22 -6 51 -19 65 -28 l24 -16 -53 -58 c-57 -62 -112 -138 -112 -153 0 -6
-3 -12 -8 -14 -4 -1 -21 -30 -39 -63 -43 -81 -57 -84 -50 -9 4 33 10 94 13
137 4 43 11 80 15 83 5 3 9 14 9 25 0 23 43 95 62 102 20 8 30 8 74 -6z m2507
-3289 c18 -12 34 -25 37 -28 3 -3 34 -30 70 -60 74 -62 170 -159 209 -210 14
-19 31 -40 36 -46 9 -10 76 -140 99 -192 14 -33 -4 -48 -41 -33 -89 36 -340
74 -581 87 l-114 6 -51 52 c-113 111 -129 113 -78 6 l30 -61 -25 -9 c-14 -6
-47 -10 -74 -10 -27 0 -52 -4 -55 -10 -3 -5 -17 -10 -29 -10 -40 0 -262 -60
-333 -91 -13 -5 -33 -13 -45 -18 -22 -8 -161 -76 -219 -107 -44 -24 -58 -48
-69 -120 -24 -170 -6 -464 41 -639 12 -44 23 -95 26 -112 3 -18 9 -33 14 -33
5 0 9 -13 9 -28 0 -15 4 -32 8 -38 5 -5 20 -36 33 -69 40 -103 135 -282 191
-362 71 -101 234 -288 294 -338 26 -22 75 -64 108 -93 63 -55 202 -152 248
-173 29 -13 79 3 200 63 32 15 61 28 65 28 6 0 9 -235 4 -282 -1 -4 -22 5 -48
20 -51 30 -60 34 -168 61 -77 20 -231 20 -297 2 -21 -6 -57 -17 -80 -23 -23
-7 -68 -30 -101 -50 -55 -36 -77 -41 -77 -17 0 6 -30 55 -66 110 -111 167
-277 301 -433 349 -75 24 -81 24 -81 6 0 -8 22 -28 49 -46 75 -48 77 -52 44
-102 -86 -127 -142 -308 -152 -497 l-6 -114 -45 -22 c-25 -12 -56 -27 -70 -32
-14 -6 -36 -15 -50 -21 -24 -9 -46 -15 -155 -44 -105 -27 -431 -9 -476 26 -42
33 -61 161 -33 222 42 91 134 144 248 144 77 0 87 -3 194 -51 72 -33 72 -33
72 -16 0 26 -63 87 -118 114 -44 22 -76 29 -142 33 l-84 5 -19 40 c-11 22 -23
49 -28 60 -66 163 -89 224 -89 238 0 9 -4 18 -9 21 -5 3 -11 18 -14 33 -2 16
-18 73 -35 128 -16 55 -35 125 -42 155 -7 30 -19 72 -27 94 -7 21 -12 41 -9
43 2 2 0 19 -6 36 -10 33 -17 67 -38 192 -20 119 -28 176 -44 290 -40 301 -43
351 -26 446 29 166 43 234 62 305 11 44 22 94 25 112 3 18 9 35 14 38 5 3 9
14 9 25 0 95 -147 -205 -184 -378 -27 -125 -21 -375 15 -581 13 -70 8 -81 -44
-107 -36 -18 -86 -19 -121 -4 -53 24 -73 113 -47 208 12 42 13 43 47 38 47 -8
45 4 -21 121 -88 158 -106 217 -106 350 0 62 4 127 10 145 36 111 56 166 73
197 48 86 83 146 90 155 5 6 32 42 60 80 97 130 261 303 296 312 17 4 32 -2
55 -25 76 -71 283 -183 442 -237 186 -64 471 -56 880 24 110 22 278 66 363 96
146 51 400 174 410 198 2 4 9 7 15 7 7 0 23 9 37 20 32 25 35 25 73 -2z m-28
-579 c55 -5 129 -14 165 -20 36 -5 85 -12 110 -15 25 -3 49 -10 54 -15 6 -5
21 -9 35 -9 13 0 38 -4 55 -10 17 -5 63 -19 101 -30 60 -18 115 -37 200 -70
56 -21 78 -31 178 -81 84 -41 109 -58 114 -77 8 -33 -4 -297 -15 -342 -5 -19
-15 -60 -21 -90 -16 -76 -31 -130 -46 -165 -7 -16 -18 -48 -25 -70 -21 -69
-120 -265 -173 -344 -138 -206 -348 -412 -539 -526 -9 -5 -52 -31 -95 -57 -76
-46 -247 -130 -289 -142 -39 -12 -221 130 -396 306 -211 213 -367 462 -453
723 -41 123 -79 338 -92 508 -5 75 11 245 28 277 4 8 33 28 66 45 32 16 69 37
83 45 14 9 63 31 110 49 47 18 95 37 108 42 13 5 34 9 47 9 13 0 26 4 29 9 3
5 23 11 43 14 21 4 67 11 103 18 159 28 349 35 515 18z m-242 -2350 c94 -13
158 -36 201 -69 65 -52 88 -77 115 -133 41 -85 47 -128 21 -150 -11 -9 -24
-17 -30 -17 -5 0 -24 -9 -42 -19 -80 -46 -227 -81 -343 -81 -103 0 -234 26
-321 65 -116 51 -114 49 -98 129 12 62 22 93 35 111 71 94 146 140 258 161 87
16 118 16 204 3z"/>
<path d="M5046 10140 c-121 -46 -220 -150 -255 -270 -8 -25 -20 -65 -28 -90
-16 -48 -9 -225 8 -236 5 -3 9 -16 9 -29 0 -41 108 -224 133 -225 11 0 9 28
-3 35 -5 3 -10 17 -10 30 0 13 -4 26 -9 29 -5 3 -11 18 -14 33 -3 16 -13 62
-22 103 -27 121 -13 264 38 370 20 42 105 126 150 147 74 36 122 45 170 32
115 -31 202 -101 252 -204 38 -79 48 -130 48 -250 0 -138 -5 -160 -62 -278
-19 -37 -31 -70 -29 -73 6 -5 98 79 98 90 0 4 9 20 19 35 61 86 79 273 41 417
-38 139 -96 220 -217 301 -79 53 -224 68 -317 33z"/>
<path d="M4158 10029 c-3 -27 -9 -54 -14 -59 -6 -6 -29 1 -59 16 -43 22 -60
25 -120 21 -156 -9 -268 -120 -311 -307 -14 -63 -15 -84 -4 -144 14 -86 33
-153 55 -201 19 -38 15 -62 -12 -72 -44 -15 -93 -86 -93 -132 0 -10 -16 -33
-36 -52 -39 -38 -130 -172 -159 -234 -65 -142 -56 -292 25 -410 37 -53 140
-149 179 -166 17 -8 31 -17 31 -21 0 -19 56 -7 73 16 21 28 47 26 126 -11 160
-73 262 -188 311 -353 17 -58 25 -67 69 -86 20 -9 44 -20 53 -25 42 -22 274
-6 330 22 10 5 25 9 33 9 8 0 23 4 33 9 9 5 69 34 132 65 127 62 173 87 178
99 2 4 8 7 13 7 6 0 43 23 84 50 41 28 81 50 90 50 8 0 23 4 33 9 9 5 39 19
67 32 66 32 157 100 188 141 37 49 67 106 67 128 0 10 5 22 10 25 12 7 14 55
3 55 -5 0 -20 -19 -35 -43 -82 -126 -202 -215 -364 -269 -58 -19 -89 -22 -194
-22 -150 1 -231 21 -375 90 -68 33 -204 120 -225 143 -19 21 -154 86 -232 111
-68 22 -68 22 -68 58 0 72 5 77 78 91 228 44 371 146 473 337 24 45 31 72 31
112 0 64 -18 83 -132 140 -107 54 -206 81 -355 98 -80 9 -79 6 -35 91 22 43
40 86 40 95 0 9 5 20 10 23 6 3 10 17 10 30 0 13 4 26 9 29 32 20 33 456 1
456 -4 0 -10 -23 -12 -51z m-102 -130 c60 -33 67 -45 61 -95 -6 -60 -19 -72
-47 -46 -52 48 -134 38 -188 -24 -86 -97 -78 -277 14 -337 19 -12 34 -25 34
-28 0 -8 -72 -29 -99 -29 -21 0 -51 52 -79 141 -14 42 -16 222 -3 247 5 9 17
34 27 55 56 113 188 168 280 116z m-73 -273 c33 -25 14 -59 -41 -71 -21 -4
-38 -2 -47 5 -18 15 -19 52 -3 68 16 16 69 15 91 -2z m-325 -658 c56 -120 147
-216 254 -269 l47 -24 1 -63 c0 -42 -4 -64 -12 -66 -134 -38 -196 -72 -253
-139 -31 -36 -37 -39 -59 -29 -32 14 -89 65 -127 113 -56 72 -84 188 -60 251
5 13 14 41 21 63 19 59 132 225 155 225 1 0 16 -28 33 -62z m866 -835 c3 -4
-9 -23 -27 -42 -34 -36 -53 -71 -39 -71 5 0 27 9 50 20 99 48 234 46 281 -4
l21 -22 -42 -21 c-212 -104 -378 -138 -473 -99 -33 14 -35 18 -35 63 0 101 90
180 206 182 28 1 54 -2 58 -6z"/>
<path d="M5095 9843 c-91 -47 -135 -129 -135 -249 0 -89 11 -125 58 -190 32
-44 104 -84 149 -84 73 1 173 90 201 179 14 49 16 167 2 176 -5 3 -10 15 -10
26 0 11 -12 37 -26 59 -57 86 -163 123 -239 83z m83 -189 c25 -17 30 -65 9
-82 -23 -19 -104 -33 -132 -22 -53 20 -54 89 -2 110 35 14 101 11 125 -6z
m109 -55 c16 -16 5 -39 -17 -39 -23 0 -34 16 -26 35 6 18 28 19 43 4z"/>
<path d="M5989 6816 c-4 -4 -49 -11 -100 -16 -194 -20 -346 -60 -514 -134 -99
-44 -95 -36 -95 -221 0 -123 5 -186 20 -258 19 -97 52 -208 70 -239 6 -10 10
-23 10 -30 0 -21 95 -201 141 -270 137 -203 415 -468 492 -468 32 0 190 81
294 151 286 192 485 452 598 784 51 150 67 226 91 446 l6 56 -63 30 c-112 54
-315 116 -449 138 -140 23 -488 44 -501 31z m366 -97 c144 -16 383 -74 455
-109 8 -4 29 -13 45 -20 61 -25 60 -23 63 -103 8 -219 -110 -568 -264 -778
-71 -97 -176 -200 -220 -216 -166 -63 -158 -61 -273 -53 -59 5 -122 15 -141
23 -19 8 -54 23 -76 32 -53 22 -106 77 -182 190 -204 304 -288 594 -245 847
15 88 32 122 63 126 14 2 34 7 45 11 27 12 183 40 275 50 110 12 352 12 455 0z"/>
<path d="M4415 3803 c-72 -10 -215 -73 -215 -94 0 -5 -6 -9 -13 -9 -15 0 -105
-88 -134 -130 -9 -14 -20 -27 -24 -30 -23 -16 -129 -232 -129 -261 0 -10 -4
-20 -9 -23 -9 -6 -15 -37 -27 -136 -3 -25 -10 -49 -15 -54 -13 -14 -12 -363 1
-371 6 -3 10 -28 10 -55 0 -27 5 -52 10 -55 6 -3 10 -19 10 -36 0 -16 5 -29
10 -29 6 0 10 -11 10 -25 0 -24 3 -33 32 -87 43 -83 56 -104 81 -131 15 -16
27 -32 27 -36 0 -21 174 -141 205 -141 8 0 17 -4 20 -10 3 -5 22 -10 41 -10
19 0 34 -4 34 -10 0 -6 50 -10 129 -10 76 0 132 4 136 10 3 6 19 10 35 10 36
0 151 58 211 107 92 75 181 222 217 358 35 128 48 311 34 473 -12 142 -18 177
-58 312 -4 14 -30 70 -57 124 -41 81 -65 115 -131 181 -83 83 -144 121 -242
149 -56 16 -155 26 -199 19z m109 -444 c34 -27 76 -92 76 -119 0 -11 5 -20 10
-20 6 0 10 -15 10 -34 0 -19 5 -38 10 -41 6 -4 10 -63 10 -146 0 -86 -4 -139
-10 -139 -5 0 -10 -11 -10 -24 0 -33 -39 -103 -73 -132 -39 -33 -108 -33 -142
-1 -29 28 -65 92 -65 117 0 10 -4 22 -10 25 -6 4 -10 63 -10 145 0 82 4 141
10 145 6 3 10 21 10 40 0 19 5 37 10 40 6 3 10 13 10 20 0 26 61 115 88 130
36 19 45 19 76 -6z"/>
<path d="M5835 3801 c-136 -22 -266 -97 -365 -213 -34 -39 -69 -82 -78 -97 -9
-14 -19 -28 -22 -31 -7 -6 -54 -103 -70 -145 -43 -109 -60 -164 -60 -190 0
-17 -4 -35 -9 -40 -28 -30 -28 -491 0 -520 5 -5 9 -20 9 -34 0 -20 25 -105 45
-156 9 -20 61 -104 85 -136 66 -88 180 -159 256 -159 23 0 46 -5 50 -11 3 -6
20 -9 38 -5 17 3 49 8 71 12 22 3 45 10 50 14 6 4 22 10 37 14 15 3 57 34 93
68 36 33 68 59 70 56 3 -3 -1 -29 -9 -59 -17 -65 -9 -78 37 -62 17 7 70 17
116 24 79 11 174 5 280 -17 21 -4 23 -2 18 23 -2 15 -15 64 -28 108 -20 69
-24 106 -27 275 -1 108 1 204 7 215 5 11 14 47 21 80 7 33 21 77 31 97 28 55
25 68 -15 68 -19 0 -38 -4 -41 -10 -3 -5 -39 -10 -80 -10 -41 0 -77 -4 -80
-10 -4 -6 -62 -10 -141 -10 -74 0 -134 -3 -134 -6 0 -3 16 -24 35 -47 30 -35
35 -48 35 -91 0 -97 -61 -176 -136 -176 -114 0 -188 120 -197 320 -2 47 -1
119 4 161 7 73 46 210 61 217 5 2 8 9 8 16 0 7 19 34 43 59 88 95 208 114 248
41 10 -20 10 -29 -1 -49 -18 -34 -83 -35 -117 -3 -23 21 -23 21 -37 2 -21 -28
-29 -115 -16 -165 12 -44 65 -105 110 -126 66 -32 174 -31 245 2 49 23 125
102 125 130 0 8 4 15 9 15 31 0 31 276 0 296 -5 3 -9 14 -9 25 0 10 -4 19 -10
19 -5 0 -10 6 -10 14 0 8 -20 36 -45 64 -45 50 -122 95 -215 127 -54 18 -215
27 -285 16z"/>
<path d="M7515 3775 c-255 -41 -519 -44 -864 -10 l-53 5 6 -27 c88 -400 95
-1061 15 -1453 -11 -52 -26 -113 -33 -135 -8 -22 -11 -44 -6 -48 4 -5 25 -4
46 2 56 14 225 30 404 37 136 5 304 -2 548 -23 58 -4 72 -3 72 8 0 18 -19 218
-31 334 -6 50 -13 131 -17 180 -6 73 -10 89 -22 87 -8 -2 -19 -11 -24 -20 -19
-38 -138 -142 -188 -165 -65 -29 -137 -47 -144 -36 -3 5 -15 9 -28 9 -52 0
-96 78 -96 171 0 79 40 149 85 149 11 0 26 5 33 12 20 20 89 -10 132 -59 20
-24 40 -43 44 -43 3 0 6 97 6 215 0 118 -4 215 -9 215 -4 0 -19 -10 -33 -22
-58 -52 -69 -58 -110 -58 -48 0 -101 31 -119 70 -6 14 -15 33 -20 42 -26 50
10 155 60 178 74 35 62 34 179 14 18 -4 35 -10 38 -15 3 -5 11 -9 19 -9 20 0
130 -66 160 -96 13 -13 31 -24 40 -24 14 0 15 30 13 262 -2 164 -7 262 -13
263 -5 2 -46 -3 -90 -10z"/>
<path d="M2400 3775 c0 -3 9 -24 19 -48 26 -58 29 -69 45 -151 27 -138 35
-203 47 -384 15 -229 3 -436 -42 -712 -6 -36 -15 -75 -20 -88 -5 -13 -9 -34
-9 -47 0 -13 -4 -27 -10 -30 -5 -3 -10 -21 -10 -40 0 -19 -4 -37 -10 -40 -5
-3 -10 -17 -10 -31 0 -13 -4 -24 -10 -24 -5 0 -10 -8 -10 -18 0 -10 -5 -23
-11 -29 -23 -23 3 -28 111 -19 79 6 159 5 270 -4 217 -18 408 0 535 49 133 52
241 130 318 230 27 34 97 173 97 193 0 9 4 19 9 22 10 7 17 43 33 176 25 201
11 364 -44 540 -64 204 -192 345 -363 400 -39 12 -79 26 -90 30 -11 5 -69 14
-128 21 -88 10 -145 10 -297 -1 -147 -10 -207 -11 -272 -2 -88 13 -148 15
-148 7z m701 -368 c31 -23 59 -86 59 -132 0 -24 5 -47 10 -50 6 -4 10 -103 10
-265 0 -162 -4 -261 -10 -265 -5 -3 -10 -33 -10 -65 0 -32 -4 -62 -10 -65 -5
-3 -10 -16 -10 -28 0 -29 -42 -77 -68 -77 -28 0 -68 55 -76 105 -25 145 -25
586 -1 715 9 49 32 96 57 120 25 23 28 24 49 7z"/>
<path d="M3321 1059 c-60 -36 -81 -74 -81 -142 0 -63 26 -96 110 -139 25 -13
51 -29 58 -35 7 -7 17 -13 20 -13 4 0 13 -9 20 -21 15 -24 1 -49 -29 -49 -24
0 -33 18 -18 36 21 25 -11 46 -70 46 -66 0 -91 -20 -91 -74 0 -71 34 -110 117
-134 133 -39 263 50 263 180 0 56 -28 97 -86 126 -27 14 -50 28 -52 33 -2 4
-12 7 -21 7 -25 0 -71 45 -71 69 0 23 25 51 46 51 18 0 32 -32 16 -38 -7 -2
-12 -14 -12 -27 0 -18 10 -29 35 -41 30 -14 40 -15 68 -3 47 19 57 33 57 76 0
40 -25 76 -67 101 -13 7 -57 12 -100 12 -61 0 -85 -5 -112 -21z"/>
<path d="M3748 1040 c-99 -86 -130 -257 -73 -392 14 -35 56 -78 92 -97 37 -19
131 -14 172 10 39 21 81 75 81 102 0 8 5 19 10 22 6 4 10 55 10 121 0 69 -4
114 -10 114 -5 0 -10 7 -10 15 0 34 -57 108 -102 131 -15 8 -49 14 -76 14 -43
0 -55 -5 -94 -40z m116 -96 c9 -3 16 -14 16 -24 0 -11 5 -22 10 -25 14 -8 13
-98 -2 -129 -16 -36 -46 -43 -72 -17 -36 36 -24 165 18 193 13 9 11 9 30 2z"/>
<path d="M4425 1059 c4 -13 10 -103 12 -199 3 -174 13 -238 43 -273 28 -35 73
-51 140 -51 52 0 72 5 102 25 63 41 76 81 83 264 3 88 7 177 8 198 l2 38 -60
3 c-33 1 -73 6 -89 11 l-29 8 8 -39 c14 -80 17 -306 4 -331 -22 -41 -46 -29
-53 27 -9 64 4 291 17 308 11 14 13 13 -73 16 -36 1 -78 6 -94 10 -28 8 -29 8
-21 -15z"/>
<path d="M5170 1070 c-14 -4 -89 -8 -167 -9 l-142 -1 -3 -102 c-2 -57 -1 -109
1 -116 4 -15 21 1 59 56 34 47 49 41 54 -20 5 -50 -14 -250 -28 -296 l-7 -23
99 3 c82 3 98 6 95 18 -26 111 -41 370 -21 370 15 0 78 -67 86 -92 15 -47 24
-8 24 102 0 127 1 126 -50 110z"/>
<path d="M5273 1054 c20 -94 18 -381 -4 -474 -3 -12 13 -15 95 -18 l98 -3 -8
58 c-5 32 -9 144 -9 249 l0 192 -65 5 c-36 4 -76 10 -89 13 -22 7 -23 5 -18
-22z"/>
<path d="M5604 1046 c-41 -35 -84 -105 -84 -136 0 -11 -4 -22 -10 -25 -5 -3
-10 -44 -10 -90 0 -46 5 -87 10 -90 6 -3 10 -15 10 -26 0 -37 47 -102 92 -125
15 -8 54 -14 88 -14 99 0 158 51 189 163 20 70 10 180 -22 250 -42 93 -88 127
-170 127 -46 0 -59 -5 -93 -34z m135 -140 c34 -72 12 -171 -39 -171 -30 0 -62
56 -56 95 10 53 19 86 29 98 16 21 51 9 66 -22z"/>
<path d="M5940 1063 c0 -10 5 -24 10 -29 12 -12 8 -388 -5 -442 l-7 -33 98 3
c82 3 98 6 95 18 -2 8 -8 40 -12 70 -4 30 -11 76 -15 103 -3 26 -3 47 2 47 20
-1 70 -136 76 -205 l3 -30 95 0 c80 0 94 2 91 15 -28 104 -36 358 -15 451 6
26 4 26 -58 32 -34 4 -76 10 -92 13 -27 6 -29 5 -22 -17 13 -39 20 -209 9
-209 -5 0 -20 35 -32 78 -40 136 -39 134 -101 136 -30 1 -70 6 -87 10 -29 7
-33 6 -33 -11z"/>
<path d="M6498 1063 c-15 -7 -40 -30 -55 -49 -22 -29 -26 -46 -26 -95 0 -69
20 -98 100 -138 85 -44 103 -60 103 -92 0 -24 -4 -29 -24 -29 -30 0 -42 16
-26 35 17 21 -1 41 -43 49 -52 9 -90 -6 -111 -46 -19 -34 -19 -37 -2 -71 36
-77 132 -118 223 -96 107 25 180 130 153 216 -20 61 -46 81 -186 145 -31 14
-51 55 -38 75 19 30 41 38 59 23 16 -13 16 -15 0 -26 -25 -19 -12 -56 24 -72
25 -11 37 -11 67 0 74 26 79 110 10 163 -29 22 -42 25 -117 24 -52 -1 -94 -7
-111 -16z"/>
<path d="M4096 1029 c11 -65 8 -356 -5 -413 -7 -27 -8 -52 -4 -55 4 -3 77 -5
162 -3 l153 3 -6 71 c-10 98 -13 102 -43 78 -54 -42 -107 -12 -119 68 -6 40 6
177 22 255 6 27 6 27 -49 27 -30 0 -69 3 -87 6 l-32 7 8 -44z"/>
</g>
</svg>
